<svg class="diagram-root" style="background: #f5f6f6" xmlns="http://www.w3.org/2000/svg" xmlns:xlink="http://www.w3.org/1999/xlink"><style>.diagram-root { font-family: "Helvetica Neue", sans-serif; font-size: 12px; } .t { overflow: visible; } .t-bg { y: 40; fill: #fff;   } .th { fill: #005aa0;   } .tht { fill: #fff; font-size: 14px;  } .tf { fill: #323c46; overflow: visible; } .tf.pk { fill: #005aa0; font-weight: bold; } .tf.fk { font-weight: bold; } .ty { fill: #adb1b5; font-weight: normal; text-anchor: end; } .r { fill: transparent; stroke: #c3c3c3; stroke-width: 1; } .l { stroke: 1; } .i { fill: #c2c7ce; stroke: #c2c7ce; } .i.ix { fill: #afb3b6; stroke: #000; } .fa { fill: transparent; overflow: visible; } .fa .bg.hover { fill: #f7f7f7; } .c { cy: 12; r: 4; stroke: #d2d2dc; fill: #d2d2dc; } .hr { fill: transparent; stroke: #323c46; stroke-opacity: 0.035; stroke-width: 13; } .dc { stroke: #fa5a3c; fill: #fa5a3c; } .x { stroke: white; stroke-width: 1; } .hl .th { fill: #1b9bff; } .hl .tht {  } .fhl .bg { fill: #e7f4ff; } .fhls .bg {  } .r.hl { stroke: #1b9bff; } .dim { opacity: 0.25; }</style><g class="drawing-wrapper" transform="translate(-229.16666666666677, -55) scale(1,1)"><g class="rs"><path d="M 731.67 167 m -1, 0 a 1,1 0 1,0 2,0 a 1,1 0 1,0 -2,0 M 731.67 167 m -0.5, 0 a 0.5,0.5 0 1,0 1,0 a 0.5,0.5 0 1,0 -1,0  M731.67 167 L731.67 167 743.67 167 M737.67 173 L737.67 173 737.67 161 M743.67 167 Q 762.7 167, 781.73 158.3 T 819.7833333333333 149.59000000000003 M 831.7833333333333 149.59000000000003 m -1, 0 a 1,1 0 1,0 2,0 a 1,1 0 1,0 -2,0 M 831.7833333333333 149.59000000000003 m -0.5, 0 a 0.5,0.5 0 1,0 1,0 a 0.5,0.5 0 1,0 -1,0  M831.7833333333333 149.59000000000003 L831.7833333333333 149.59000000000003 819.7833333333333 149.59000000000003 M825.7833333333333 155.59000000000003 L825.7833333333333 155.59000000000003 825.7833333333333 143.59000000000003" id="h184283748" class="r"></path><path d="M 542.4999999999994 417 m -1, 0 a 1,1 0 1,0 2,0 a 1,1 0 1,0 -2,0 M 542.4999999999994 417 m -0.5, 0 a 0.5,0.5 0 1,0 1,0 a 0.5,0.5 0 1,0 -1,0  M542.4999999999994 417 L542.4999999999994 417 530.4999999999994 417 M 542.4999999999994 423 m -1, 0 a 1,1 0 1,0 2,0 a 1,1 0 1,0 -2,0 M 542.4999999999994 423 m -0.5, 0 a 0.5,0.5 0 1,0 1,0 a 0.5,0.5 0 1,0 -1,0  M542.4999999999994 423 L542.4999999999994 423 535.4999999999994 417 542.4999999999994 411 M 542.4999999999994 411 m -1, 0 a 1,1 0 1,0 2,0 a 1,1 0 1,0 -2,0 M 542.4999999999994 411 m -0.5, 0 a 0.5,0.5 0 1,0 1,0 a 0.5,0.5 0 1,0 -1,0  M530.4999999999994 417 Q 510.33 417, 490.16 306.33 T 449.83 195.66666666666666 M 437.83 195.66666666666666 m -1, 0 a 1,1 0 1,0 2,0 a 1,1 0 1,0 -2,0 M 437.83 195.66666666666666 m -0.5, 0 a 0.5,0.5 0 1,0 1,0 a 0.5,0.5 0 1,0 -1,0  M437.83 195.66666666666666 L437.83 195.66666666666666 449.83 195.66666666666666 M443.83 201.66666666666666 L443.83 201.66666666666666 443.83 189.66666666666666" id="h2405255031" class="r"></path><path d="M 542.4999999999994 442 m -1, 0 a 1,1 0 1,0 2,0 a 1,1 0 1,0 -2,0 M 542.4999999999994 442 m -0.5, 0 a 0.5,0.5 0 1,0 1,0 a 0.5,0.5 0 1,0 -1,0  M542.4999999999994 442 L542.4999999999994 442 530.4999999999994 442 M 542.4999999999994 448 m -1, 0 a 1,1 0 1,0 2,0 a 1,1 0 1,0 -2,0 M 542.4999999999994 448 m -0.5, 0 a 0.5,0.5 0 1,0 1,0 a 0.5,0.5 0 1,0 -1,0  M542.4999999999994 448 L542.4999999999994 448 535.4999999999994 442 542.4999999999994 436 M 542.4999999999994 436 m -1, 0 a 1,1 0 1,0 2,0 a 1,1 0 1,0 -2,0 M 542.4999999999994 436 m -0.5, 0 a 0.5,0.5 0 1,0 1,0 a 0.5,0.5 0 1,0 -1,0  M530.4999999999994 442 Q 514.96 442, 499.42 417.33 T 468.35 392.666666666667 M 456.35 392.666666666667 m -1, 0 a 1,1 0 1,0 2,0 a 1,1 0 1,0 -2,0 M 456.35 392.666666666667 m -0.5, 0 a 0.5,0.5 0 1,0 1,0 a 0.5,0.5 0 1,0 -1,0  M456.35 392.666666666667 L456.35 392.666666666667 468.35 392.666666666667 M462.35 398.666666666667 L462.35 398.666666666667 462.35 386.666666666667" id="h734363672" class="r"></path></g><g class="hrs"></g><g class="ts"><svg width="205.18" height="100" x="251.16666666666677" y="335.666666666667" id="h2584823334" class="t"><rect height="40" width="205.18" class="th"></rect><text x="13" y="25" class="tht">Subcategory</text><rect height="60" width="205.18" class="t-bg"></rect><text x="13" y="61" class="tf pk">subcategory_id<tspan x="192.18" class="ty">VARCHAR</tspan></text><path d="M7,14A2,2 0 0,1 5,12A2,2 0 0,1 7,10A2,2 0 0,1 9,12A2,2 0 0,1 7,14M12.65,10C11.83,7.67 9.61,6 7, 6A6, 6 0 0, 0 1, 12A6, 6 0 0, 0 7, 18C9.61, 18 11.83, 16.33 12.65, 14H17V18H21V14H23V10H12.65Z" class="i pk" transform="translate(114.388984375, 48) scale(0.65)"></path><text x="13" y="86" class="tf">subcategory<tspan x="192.18" class="ty">VARCHAR</tspan></text></svg><svg width="185.83" height="100" x="252.00000000000006" y="138.66666666666666" id="h1903237708" class="t"><rect height="40" width="185.83" class="th"></rect><text x="13" y="25" class="tht">Category</text><rect height="60" width="185.83" class="t-bg"></rect><text x="13" y="61" class="tf pk">category_id<tspan x="172.83" class="ty">VARCHAR</tspan></text><path d="M7,14A2,2 0 0,1 5,12A2,2 0 0,1 7,10A2,2 0 0,1 9,12A2,2 0 0,1 7,14M12.65,10C11.83,7.67 9.61,6 7, 6A6, 6 0 0, 0 1, 12A6, 6 0 0, 0 7, 18C9.61, 18 11.83, 16.33 12.65, 14H17V18H21V14H23V10H12.65Z" class="i pk" transform="translate(95.03898437500001, 48) scale(0.65)"></path><text x="13" y="86" class="tf">category<tspan x="172.83" class="ty">VARCHAR</tspan></text></svg><svg width="189.17" height="375" x="542.4999999999994" y="85" id="h3542347218" class="t"><rect height="40" width="189.17" class="th"></rect><text x="13" y="25" class="tht">Campaign</text><rect height="335" width="189.17" class="t-bg"></rect><text x="13" y="61" class="tf pk">cf_ID<tspan x="176.17" class="ty">INTEGER</tspan></text><path d="M7,14A2,2 0 0,1 5,12A2,2 0 0,1 7,10A2,2 0 0,1 9,12A2,2 0 0,1 7,14M12.65,10C11.83,7.67 9.61,6 7, 6A6, 6 0 0, 0 1, 12A6, 6 0 0, 0 7, 18C9.61, 18 11.83, 16.33 12.65, 14H17V18H21V14H23V10H12.65Z" class="i pk" transform="translate(102.83210937499999, 48) scale(0.65)"></path><text x="13" y="86" class="tf fk">contact_id<tspan x="176.17" class="ty">INTEGER</tspan></text><text x="13" y="111" class="tf">company_name<tspan x="176.17" class="ty">VARCHAR</tspan></text><text x="13" y="136" class="tf">description<tspan x="176.17" class="ty">VARCHAR</tspan></text><text x="13" y="161" class="tf">goal<tspan x="176.17" class="ty">INTEGER</tspan></text><text x="13" y="186" class="tf">pleged<tspan x="176.17" class="ty">INTEGER</tspan></text><text x="13" y="211" class="tf">outcome<tspan x="176.17" class="ty">BOOLEAN</tspan></text><text x="13" y="236" class="tf">backers_count<tspan x="176.17" class="ty">INTEGER</tspan></text><text x="13" y="261" class="tf">country<tspan x="176.17" class="ty">VARCHAR</tspan></text><text x="13" y="286" class="tf">launched_date<tspan x="176.17" class="ty">DATE</tspan></text><text x="13" y="311" class="tf">end_date<tspan x="176.17" class="ty">DATE</tspan></text><text x="13" y="336" class="tf fk">category_id<tspan x="176.17" class="ty">VARCHAR</tspan></text><text x="13" y="361" class="tf fk">subcategory_id<tspan x="176.17" class="ty">VARCHAR</tspan></text></svg><svg width="174.04" height="150" x="831.7833333333333" y="92.59000000000002" id="h1934035236" class="t"><rect height="40" width="174.04" class="th"></rect><text x="13" y="25" class="tht">Contacts</text><rect height="110" width="174.04" class="t-bg"></rect><text x="13" y="61" class="tf pk">contact_id<tspan x="161.04" class="ty">INTEGER</tspan></text><path d="M7,14A2,2 0 0,1 5,12A2,2 0 0,1 7,10A2,2 0 0,1 9,12A2,2 0 0,1 7,14M12.65,10C11.83,7.67 9.61,6 7, 6A6, 6 0 0, 0 1, 12A6, 6 0 0, 0 7, 18C9.61, 18 11.83, 16.33 12.65, 14H17V18H21V14H23V10H12.65Z" class="i pk" transform="translate(87.70210937499999, 48) scale(0.65)"></path><text x="13" y="86" class="tf">first_name<tspan x="161.04" class="ty">VARCHAR</tspan></text><text x="13" y="111" class="tf">last_name<tspan x="161.04" class="ty">VARCHAR</tspan></text><text x="13" y="136" class="tf">email<tspan x="161.04" class="ty">VARCHAR</tspan></text></svg></g></g></svg>